{
  "accessors": [
    {
      "name": "arwing-Mesh_0_positions",
      "componentType": 5126,
      "count": 6,
      "min": [
        0.5754039883613586,
        1.515347957611084,
        -0.5694990158081055
      ],
      "max": [
        0.7258620262145996,
        1.8853310346603394,
        -0.14396600425243378
      ],
      "type": "VEC3",
      "bufferView": 0,
      "byteOffset": 0
    },
    {
      "name": "arwing-Mesh_0_texcoords",
      "componentType": 5126,
      "count": 6,
      "min": [
        -1.001099944114685,
        -0.06199999898672104
      ],
      "max": [
        0.024700000882148743,
        1.0734000205993652
      ],
      "type": "VEC2",
      "bufferView": 1,
      "byteOffset": 0
    },
    {
      "name": "arwing-Mesh_0_indices",
      "componentType": 5123,
      "count": 12,
      "min": [
        0
      ],
      "max": [
        5
      ],
      "type": "SCALAR",
      "bufferView": 2,
      "byteOffset": 0
    },
    {
      "name": "arwing-Mesh_1_positions",
      "componentType": 5126,
      "count": 2072,
      "min": [
        -1.5878260135650635,
        0.024248000234365463,
        -2.861346960067749
      ],
      "max": [
        1.5761569738388062,
        2.2396349906921387,
        1.5902869701385498
      ],
      "type": "VEC3",
      "bufferView": 0,
      "byteOffset": 72
    },
    {
      "name": "arwing-Mesh_1_texcoords",
      "componentType": 5126,
      "count": 2072,
      "min": [
        -1.999500036239624,
        0
      ],
      "max": [
        -0.00019999999494757503,
        2
      ],
      "type": "VEC2",
      "bufferView": 1,
      "byteOffset": 48
    },
    {
      "name": "arwing-Mesh_1_indices",
      "componentType": 5123,
      "count": 3642,
      "min": [
        0
      ],
      "max": [
        2071
      ],
      "type": "SCALAR",
      "bufferView": 2,
      "byteOffset": 24
    },
    {
      "name": "arwing-Mesh_2_positions",
      "componentType": 5126,
      "count": 26,
      "min": [
        -0.11972299963235855,
        1.2742069959640503,
        -0.20620499551296234
      ],
      "max": [
        0.10317199677228928,
        1.4317799806594849,
        0.365213006734848
      ],
      "type": "VEC3",
      "bufferView": 0,
      "byteOffset": 24936
    },
    {
      "name": "arwing-Mesh_2_texcoords",
      "componentType": 5126,
      "count": 26,
      "min": [
        -1.044600009918213,
        0
      ],
      "max": [
        0.0625,
        1
      ],
      "type": "VEC2",
      "bufferView": 1,
      "byteOffset": 16624
    },
    {
      "name": "arwing-Mesh_2_indices",
      "componentType": 5123,
      "count": 36,
      "min": [
        0
      ],
      "max": [
        25
      ],
      "type": "SCALAR",
      "bufferView": 2,
      "byteOffset": 7308
    }
  ],
  "asset": {
    "generator": "obj2gltf",
    "version": "2.0"
  },
  "buffers": [
    {
      "name": "arwing",
      "byteLength": 135372,
      "uri": "data:application/octet-stream;base64,"
    }
  ],
  "bufferViews": [
    {
      "name": "bufferView_0",
      "buffer": 0,
      "byteLength": 25248,
      "byteOffset": 0,
      "byteStride": 12,
      "target": 34962
    },
    {
      "name": "bufferView_1",
      "buffer": 0,
      "byteLength": 16832,
      "byteOffset": 25248,
      "byteStride": 8,
      "target": 34962
    },
    {
      "name": "bufferView_2",
      "buffer": 0,
      "byteLength": 7380,
      "byteOffset": 42080,
      "target": 34963
    },
    {
      "buffer": 0,
      "byteOffset": 49460,
      "byteLength": 4186
    },
    {
      "buffer": 0,
      "byteOffset": 53646,
      "byteLength": 81237
    },
    {
      "buffer": 0,
      "byteOffset": 134883,
      "byteLength": 486
    }
  ],
  "images": [
    {
      "name": "logo",
      "mimeType": "image/png",
      "bufferView": 3
    },
    {
      "name": "body",
      "mimeType": "image/png",
      "bufferView": 4
    },
    {
      "name": "cockpit",
      "mimeType": "image/png",
      "bufferView": 5
    }
  ],
  "materials": [
    {
      "name": "logo",
      "pbrMetallicRoughness": {
        "baseColorTexture": {
          "index": 0
        },
        "baseColorFactor": [
          1,
          1,
          1,
          1
        ],
        "metallicFactor": 0,
        "roughnessFactor": 0.888235294
      },
      "emissiveFactor": [
        0,
        0,
        0
      ],
      "alphaMode": "BLEND",
      "doubleSided": true
    },
    {
      "name": "body",
      "pbrMetallicRoughness": {
        "baseColorTexture": {
          "index": 1
        },
        "baseColorFactor": [
          1,
          1,
          1,
          1
        ],
        "metallicFactor": 0,
        "roughnessFactor": 0.888235294
      },
      "emissiveFactor": [
        0,
        0,
        0
      ],
      "alphaMode": "OPAQUE",
      "doubleSided": false
    },
    {
      "name": "cockpit",
      "pbrMetallicRoughness": {
        "baseColorTexture": {
          "index": 2
        },
        "baseColorFactor": [
          1,
          1,
          1,
          1
        ],
        "metallicFactor": 0,
        "roughnessFactor": 0.888235294
      },
      "emissiveFactor": [
        0,
        0,
        0
      ],
      "alphaMode": "BLEND",
      "doubleSided": true
    }
  ],
  "meshes": [
    {
      "name": "arwing-Mesh",
      "primitives": [
        {
          "attributes": {
            "POSITION": 0,
            "TEXCOORD_0": 1
          },
          "indices": 2,
          "material": 0,
          "mode": 4
        },
        {
          "attributes": {
            "POSITION": 3,
            "TEXCOORD_0": 4
          },
          "indices": 5,
          "material": 1,
          "mode": 4
        },
        {
          "attributes": {
            "POSITION": 6,
            "TEXCOORD_0": 7
          },
          "indices": 8,
          "material": 2,
          "mode": 4
        }
      ]
    }
  ],
  "nodes": [
    {
      "name": "arwing",
      "mesh": 0
    }
  ],
  "samplers": [
    {
      "wrapS": 10497,
      "wrapT": 10497
    }
  ],
  "scene": 0,
  "scenes": [
    {
      "nodes": [
        0
      ]
    }
  ],
  "textures": [
    {
      "name": "logo",
      "sampler": 0,
      "source": 0
    },
    {
      "name": "body",
      "sampler": 0,
      "source": 1
    },
    {
      "name": "cockpit",
      "sampler": 0,
      "source": 2
    }
  ]
}
